<svg xmlns="http://www.w3.org/2000/svg">
	<symbol id="icon-facebook" viewBox="0 0 512 512">
		<path d="M304 96h80v-96h-80c-61.757 0-112 50.243-112 112v48h-64v96h64v256h96v-256h80l16-96h-96v-48c0-8.673 7.327-16 16-16z"/>
	</symbol>
	<symbol id="icon-vk" viewBox="0 0 22 14">
		<path d="M11.9825 14C4.46596 14 0.178638 8.74474 0 0H3.76515C3.88882 6.41842 6.66459 9.13714 8.86321 9.6977V0H12.4085V5.53553C14.5796 5.2973 16.8607 2.77477 17.6302 0H21.1755C20.8855 1.43908 20.3075 2.80165 19.4776 4.0025C18.6477 5.20335 17.5837 6.21663 16.3523 6.97898C17.7269 7.67555 18.941 8.6615 19.9145 9.87175C20.888 11.082 21.5988 12.489 22 14H18.0974C17.7373 12.6876 17.0054 11.5128 15.9934 10.6228C14.9814 9.73284 13.7343 9.16727 12.4085 8.997V14H11.9825Z"/>
	</symbol>
	<symbol id="icon-instagram" viewBox="0 0 512 512">
		<path d="M256 46.1c68.4 0 76.5 0.3 103.4 1.5 25 1.1 38.5 5.3 47.5 8.8 11.9 4.6 20.5 10.2 29.4 19.1 9 9 14.5 17.5 19.2 29.4 3.5 9 7.7 22.6 8.8 47.5 1.2 27 1.5 35.1 1.5 103.4s-0.3 76.5-1.5 103.4c-1.1 25-5.3 38.5-8.8 47.5-4.6 11.9-10.2 20.5-19.1 29.4-9 9-17.5 14.5-29.4 19.2-9 3.5-22.6 7.7-47.5 8.8-27 1.2-35.1 1.5-103.4 1.5s-76.5-0.3-103.4-1.5c-25-1.1-38.5-5.3-47.5-8.8-11.9-4.6-20.5-10.2-29.4-19.1-9-9-14.5-17.5-19.2-29.4-3.5-9-7.7-22.6-8.8-47.5-1.2-27-1.5-35.1-1.5-103.4s0.3-76.5 1.5-103.4c1.1-25 5.3-38.5 8.8-47.5 4.6-11.9 10.2-20.5 19.1-29.4 9-9 17.5-14.5 29.4-19.2 9-3.5 22.6-7.7 47.5-8.8 26.9-1.2 35-1.5 103.4-1.5zM256 0c-69.5 0-78.2 0.3-105.5 1.5-27.2 1.2-45.9 5.6-62.1 11.9-16.9 6.6-31.2 15.3-45.4 29.6-14.3 14.2-23 28.5-29.6 45.3-6.3 16.3-10.7 34.9-11.9 62.1-1.2 27.4-1.5 36.1-1.5 105.6s0.3 78.2 1.5 105.5c1.2 27.2 5.6 45.9 11.9 62.1 6.6 16.9 15.3 31.2 29.6 45.4 14.2 14.2 28.5 23 45.3 29.5 16.3 6.3 34.9 10.7 62.1 11.9 27.3 1.2 36 1.5 105.5 1.5s78.2-0.3 105.5-1.5c27.2-1.2 45.9-5.6 62.1-11.9 16.8-6.5 31.1-15.3 45.3-29.5s23-28.5 29.5-45.3c6.3-16.3 10.7-34.9 11.9-62.1 1.2-27.3 1.5-36 1.5-105.5s-0.3-78.2-1.5-105.5c-1.2-27.2-5.6-45.9-11.9-62.1-6.3-17-15-31.3-29.3-45.5-14.2-14.2-28.5-23-45.3-29.5-16.3-6.3-34.9-10.7-62.1-11.9-27.4-1.3-36.1-1.6-105.6-1.6v0z"/>
		<path d="M256 124.5c-72.6 0-131.5 58.9-131.5 131.5s58.9 131.5 131.5 131.5 131.5-58.9 131.5-131.5c0-72.6-58.9-131.5-131.5-131.5zM256 341.3c-47.1 0-85.3-38.2-85.3-85.3s38.2-85.3 85.3-85.3c47.1 0 85.3 38.2 85.3 85.3s-38.2 85.3-85.3 85.3z"/>
		<path d="M423.4 119.3c0 16.955-13.745 30.7-30.7 30.7s-30.7-13.745-30.7-30.7c0-16.955 13.745-30.7 30.7-30.7s30.7 13.745 30.7 30.7z"/>
	</symbol>
	<symbol id="icon-twitter" viewBox="0 0 512 512">
		<path d="M512 113.2c-18.8 8.4-39.1 14-60.3 16.5 21.7-13 38.3-33.6 46.2-58.1-20.3 12-42.8 20.8-66.7 25.5-19.2-20.4-46.5-33.1-76.7-33.1-58 0-105 47-105 105 0 8.2 0.9 16.2 2.7 23.9-87.3-4.4-164.7-46.2-216.5-109.8-9 15.5-14.2 33.6-14.2 52.8 0 36.4 18.5 68.6 46.7 87.4-17.2-0.5-33.4-5.3-47.6-13.1 0 0.4 0 0.9 0 1.3 0 50.9 36.2 93.4 84.3 103-8.8 2.4-18.1 3.7-27.7 3.7-6.8 0-13.3-0.7-19.8-1.9 13.4 41.7 52.2 72.1 98.1 73-36 28.2-81.2 45-130.5 45-8.5 0-16.8-0.5-25.1-1.5 46.6 29.9 101.8 47.2 161.1 47.2 193.2 0 298.9-160.1 298.9-298.9 0-4.6-0.1-9.1-0.3-13.6 20.5-14.7 38.3-33.2 52.4-54.3z"/>
	</symbol>
	<symbol id="icon-telegram" viewBox="0 0 19 17">
		<path d="M19 0.602225L15.9946 16.2923C15.9946 16.2923 15.5741 17.3801 14.4189 16.8584L7.48458 11.3526L7.45242 11.3364C8.38909 10.4654 15.6524 3.70266 15.9698 3.39612C16.4613 2.92136 16.1562 2.63873 15.5856 2.99736L4.85679 10.053L0.717638 8.61077C0.717638 8.61077 0.0662573 8.37083 0.00359284 7.84911C-0.0598962 7.32653 0.739076 7.0439 0.739076 7.0439L17.6131 0.188948C17.6131 0.188948 19 -0.44207 19 0.602225Z"/>
	</symbol>
	<symbol id="icon-whatsapp" viewBox="0 0 21 21">
		<path d="M17.9268 3.0625C15.9512 1.09375 13.3171 0 10.5366 0C4.7561 0 0.0731696 4.66667 0.0731696 10.4271C0.0731696 12.25 0.585366 14.0729 1.46341 15.6042L0 21L5.56098 19.5417C7.09756 20.3438 8.78049 20.7812 10.5366 20.7812C16.3171 20.7812 21 16.1146 21 10.3542C20.9268 7.65625 19.9024 5.03125 17.9268 3.0625ZM15.5854 14.1458C15.3659 14.7292 14.3415 15.3125 13.8293 15.3854C13.3902 15.4583 12.8049 15.4583 12.2195 15.3125C11.8537 15.1667 11.3415 15.0208 10.7561 14.7292C8.12195 13.6354 6.43903 11.0104 6.29268 10.7917C6.14634 10.6458 5.19512 9.40625 5.19512 8.09375C5.19512 6.78125 5.85366 6.19792 6.07317 5.90625C6.29268 5.61458 6.58536 5.61458 6.80488 5.61458C6.95122 5.61458 7.17073 5.61458 7.31707 5.61458C7.46341 5.61458 7.68293 5.54167 7.90244 6.05208C8.12195 6.5625 8.63414 7.875 8.70731 7.94792C8.78049 8.09375 8.78049 8.23958 8.70731 8.38542C8.63414 8.53125 8.56097 8.67708 8.41463 8.82292C8.26829 8.96875 8.12195 9.1875 8.04878 9.26042C7.90244 9.40625 7.7561 9.55208 7.90244 9.77083C8.04878 10.0625 8.56097 10.8646 9.36585 11.5937C10.3902 12.4687 11.1951 12.7604 11.4878 12.9063C11.7805 13.0521 11.9268 12.9792 12.0732 12.8333C12.2195 12.6875 12.7317 12.1042 12.878 11.8125C13.0244 11.5208 13.2439 11.5938 13.4634 11.6667C13.6829 11.7396 15 12.3958 15.2195 12.5417C15.5122 12.6875 15.6585 12.7604 15.7317 12.8333C15.8049 13.0521 15.8049 13.5625 15.5854 14.1458Z"/>
	</symbol>
	<symbol id="icon-viber" viewBox="0 0 21 23">
		<path d="M16.2539 0.545914C12.4424 -0.181971 8.48429 -0.181971 4.67277 0.545914C2.98691 0.909856 0.861257 2.94793 0.494764 4.54928C-0.164922 7.67919 -0.164922 10.8819 0.494764 14.0118C0.934555 15.6131 3.06021 17.6512 4.67277 18.0152C4.74607 18.0152 4.81937 18.0879 4.81937 18.1607V22.7464C4.81937 22.9648 5.11257 23.1103 5.25916 22.892L7.45812 20.6355C7.45812 20.6355 9.21728 18.8158 9.51047 18.5247C9.51047 18.5247 9.58377 18.4519 9.65707 18.4519C11.856 18.5247 14.1283 18.3063 16.3272 17.9424C18.0131 17.5784 20.1387 15.5403 20.5052 13.939C21.1649 10.8091 21.1649 7.6064 20.5052 4.47649C20.0654 2.94793 17.9398 0.909856 16.2539 0.545914ZM16.3272 14.2302C15.9607 14.958 15.5209 15.5403 14.788 15.9043C14.5681 15.9771 14.3482 16.0499 14.1283 16.1227C13.8351 16.0499 13.6152 15.9771 13.3953 15.9043C11.0497 14.958 8.85079 13.6478 7.09162 11.7553C6.13874 10.6635 5.33246 9.42611 4.67277 8.11592C4.37958 7.46082 4.08639 6.87851 3.86649 6.22342C3.6466 5.64111 4.01309 5.0588 4.37958 4.62207C4.74607 4.18534 5.18586 3.89418 5.69895 3.67582C6.06544 3.45745 6.43194 3.60303 6.72513 3.89418C7.31152 4.62207 7.8979 5.34995 8.3377 6.15063C8.63089 6.66015 8.55759 7.24245 8.0445 7.6064C7.8979 7.67919 7.82461 7.75198 7.67801 7.89755C7.60471 7.97034 7.45811 8.04313 7.38481 8.1887C7.23822 8.40707 7.23822 8.62544 7.31152 8.8438C7.8979 10.5179 8.99738 11.8281 10.6832 12.556C10.9764 12.7016 11.1963 12.7744 11.5628 12.7744C12.0759 12.7016 12.2958 12.1193 12.6623 11.8281C13.0288 11.537 13.4686 11.537 13.9084 11.7553C14.2749 11.9737 14.6414 12.2649 15.0811 12.556C15.4476 12.8472 15.8141 13.0655 16.1806 13.3567C16.4005 13.5023 16.4738 13.8662 16.3272 14.2302ZM13.2487 8.77101C13.1021 8.77101 13.1754 8.77101 13.2487 8.77101C12.9555 8.77101 12.8822 8.62544 12.8089 8.40707C12.8089 8.26149 12.8089 8.04313 12.7356 7.89755C12.6623 7.6064 12.5157 7.31524 12.2225 7.09688C12.0759 7.02409 11.9293 6.9513 11.7827 6.87851C11.5628 6.80572 11.4162 6.80572 11.1963 6.80572C10.9764 6.73294 10.9031 6.58736 10.9031 6.36899C10.9031 6.22342 11.123 6.07784 11.2696 6.07784C12.4424 6.15063 13.322 6.80572 13.4686 8.1887C13.4686 8.26149 13.4686 8.40707 13.4686 8.47986C13.4686 8.62544 13.3953 8.77101 13.2487 8.77101ZM12.5157 5.56832C12.1492 5.42274 11.7827 5.27717 11.3429 5.20438C11.1963 5.20438 10.9764 5.13159 10.8298 5.13159C10.6099 5.13159 10.4634 4.98601 10.5366 4.76765C10.5366 4.54928 10.6832 4.4037 10.9031 4.47649C11.6361 4.54928 12.2958 4.69486 12.9555 4.98601C14.2749 5.64111 15.0079 6.73293 15.2277 8.1887C15.2277 8.26149 15.2277 8.33428 15.2277 8.40707C15.2277 8.55265 15.2277 8.69822 15.2277 8.91659C15.2277 8.98938 15.2277 9.06217 15.2277 9.13496C15.1545 9.42611 14.6414 9.4989 14.5681 9.13496C14.5681 9.06217 14.4948 8.91659 14.4948 8.8438C14.4948 8.18871 14.3482 7.53361 14.055 6.9513C13.6152 6.2962 13.1021 5.85947 12.5157 5.56832ZM16.4738 9.93563C16.2539 9.93563 16.1073 9.71727 16.1073 9.4989C16.1073 9.06217 16.034 8.62543 15.9607 8.1887C15.6675 5.85947 13.7618 3.96697 11.4895 3.60303C11.123 3.53024 10.7565 3.53024 10.4634 3.45745C10.2435 3.45745 9.95026 3.45745 9.87696 3.1663C9.80366 2.94793 10.0236 2.72957 10.2435 2.72957C10.3168 2.72957 10.3901 2.72957 10.3901 2.72957C13.3953 2.80236 10.5367 2.72957 10.3901 2.72957C13.4686 2.80236 16.034 4.84044 16.5471 7.89755C16.6204 8.40707 16.6937 8.91659 16.6937 9.4989C16.8403 9.71727 16.6937 9.93563 16.4738 9.93563Z"/>
	</symbol>
	<symbol id="icon-phone" viewBox="0 0 14 14">
		<path d="M13.6189 10.2746L11.6652 8.32085C10.9674 7.62308 9.7812 7.90222 9.50209 8.80928C9.29276 9.4373 8.595 9.78618 7.96701 9.6466C6.57148 9.29772 4.68752 7.48353 4.33863 6.01822C4.1293 5.39021 4.54796 4.69244 5.17595 4.48314C6.08305 4.20403 6.36215 3.01783 5.66439 2.32007L3.71064 0.366327C3.15243 -0.122109 2.31511 -0.122109 1.82668 0.366327L0.500926 1.69208C-0.824828 3.08761 0.640479 6.78576 3.91997 10.0653C7.19947 13.3448 10.8976 14.8799 12.2932 13.4843L13.6189 12.1586C14.1074 11.6003 14.1074 10.763 13.6189 10.2746Z"/>
	</symbol>
	<symbol id="icon-ya-zen" viewBox="0 0 22 22">
		<path d="M 10.777344 0 C 10.777294 0.0043575536 10.777394 0.0073648907 10.777344 0.01171875 C 10.852141 0.010218428 10.924843 0 11 0 L 10.777344 0 z M 11 0 C 11.146334 0 11.288647 0.015822209 11.433594 0.021484375 C 11.4335 0.013507941 11.433686 0.0079888483 11.433594 0 L 11 0 z M 11.433594 0.021484375 C 11.486365 4.5319557 11.784073 7.0614463 13.466797 8.7441406 C 15.124353 10.401777 17.60322 10.716046 21.988281 10.775391 C 21.870422 4.9506266 17.231051 0.24795455 11.433594 0.021484375 z M 21.988281 10.775391 C 21.989808 10.850839 22 10.924186 22 11 L 22 10.775391 C 21.995648 10.775332 21.99263 10.775449 21.988281 10.775391 z M 22 11 C 22 11.147649 21.98428 11.291264 21.978516 11.4375 C 21.986483 11.437391 21.99202 11.437607 22 11.4375 L 22 11 z M 21.978516 11.4375 C 17.60023 11.497217 15.122983 11.810611 13.466797 13.466797 C 11.810611 15.122983 11.497217 17.60023 11.4375 21.978516 C 17.161988 21.752883 21.752883 17.161988 21.978516 11.4375 z M 11.4375 21.978516 C 11.291264 21.98428 11.147649 22 11 22 L 11.4375 22 C 11.437607 21.99202 11.437391 21.986483 11.4375 21.978516 z M 11 22 C 10.924186 22 10.850839 21.989808 10.775391 21.988281 C 10.77545 21.99263 10.775332 21.995648 10.775391 22 L 11 22 z M 10.775391 21.988281 C 10.715946 17.60322 10.401777 15.124353 8.7441406 13.466797 C 7.0614463 11.784073 4.5319557 11.486365 0.021484375 11.433594 C 0.24795455 17.231051 4.9506266 21.870422 10.775391 21.988281 z M 0.021484375 11.433594 C 0.015822209 11.288647 0 11.146334 0 11 L 0 11.433594 C 0.0079888483 11.433686 0.013507941 11.4335 0.021484375 11.433594 z M 0 11 C 0 10.924843 0.010218428 10.852141 0.01171875 10.777344 C 0.0073648907 10.777394 0.0043575536 10.777294 0 10.777344 L 0 11 z M 0.01171875 10.777344 C 4.5290082 10.724924 7.0600937 10.428197 8.7441406 8.7441406 C 10.428197 7.0600937 10.724924 4.5290082 10.777344 0.01171875 C 4.8808373 0.12999338 0.12999338 4.8808373 0.01171875 10.777344 z "/>
	</symbol>
	<symbol id="icon-play" viewBox="0 0 11.000026 12.395314">
		<path d="m 10.500001,5.331614 c 0.6667,0.38491 0.6667,1.34715 0,1.73206 l -9.0000004,5.19617 C 0.83333258,12.644744 -3.3648999e-8,12.163644 0,11.393844 L 4.54262e-7,1.001494 C 4.87911e-7,0.23169398 0.83333358,-0.24943402 1.5000006,0.13546598 Z"/>
	</symbol>
	<symbol id="icon-youtube" viewBox="0 0 512 512">
		<path d="M506.9 153.6c0 0-5-35.3-20.4-50.8-19.5-20.4-41.3-20.5-51.3-21.7-71.6-5.2-179.1-5.2-179.1-5.2h-0.2c0 0-107.5 0-179.1 5.2-10 1.2-31.8 1.3-51.3 21.7-15.4 15.5-20.3 50.8-20.3 50.8s-5.1 41.4-5.1 82.9v38.8c0 41.4 5.1 82.9 5.1 82.9s5 35.3 20.3 50.8c19.5 20.4 45.1 19.7 56.5 21.9 41 3.9 174.1 5.1 174.1 5.1s107.6-0.2 179.2-5.3c10-1.2 31.8-1.3 51.3-21.7 15.4-15.5 20.4-50.8 20.4-50.8s5.1-41.4 5.1-82.9v-38.8c-0.1-41.4-5.2-82.9-5.2-82.9zM203.1 322.4v-143.9l138.3 72.2-138.3 71.7z"/>
	</symbol>
	<symbol id="icon-cross" viewBox="0 0 10.192457 10.192453">
		<path fill-rule="evenodd" clip-rule="evenodd" d="m 9.3388825,10.045954 c 0.1953,0.195299 0.5118,0.195299 0.7071005,0 0.1953,-0.1953005 0.1953,-0.5119005 0,-0.7071005 l -4.2426205,-4.24264 4.2426195,-4.24258 c 0.1952,-0.19527 0.1952,-0.51185 0,-0.70711 -0.1952995,-0.195263 -0.5118995,-0.195263 -0.7070995,0 l -4.24263,4.24258 -4.24266,-4.24266 c -0.19526,-0.195258 -0.51184,-0.195258 -0.707104,0 -0.195263,0.19527 -0.195263,0.51185 0,0.70711 l 4.242654,4.24266 -4.242696,4.24274 c -0.195262,0.1952 -0.195262,0.5118 0,0.7070995 0.195266,0.1952 0.511846,0.1952 0.707106,0 l 4.2427,-4.2427295 z"/>
	</symbol>
	<symbol id="icon-cross-bold" viewBox="0 0 9.9996977 10.000261">
		<path d="M 9.0291458,4.1288338e-4 A 1,1 0 0 0 8.2928178,0.29338168 L 0.29281765,8.2933819 a 1,1 0 0 0 0,1.414062 1,1 0 0 0 1.41406235,0 L 9.7068798,1.7074441 a 1,1 0 0 0 0,-1.41406242 1,1 0 0 0 -0.677734,-0.29296879662 z"/>
		<path d="M 1.0291457,4.1288338e-4 A 1,1 0 0 0 0.29281765,0.29338168 a 1,1 0 0 0 0,1.41406242 L 8.2928178,9.7074439 a 1,1 0 0 0 1.414062,0 1,1 0 0 0 0,-1.414062 L 1.70688,0.29338168 A 1,1 0 0 0 1.0291457,4.1288338e-4 Z"/>
	</symbol>
	<symbol id="icon-ok" viewBox="0 0 15.688 11.38">
		<path d="M543.339,1491.68a1.034,1.034,0,0,1-.73-0.3l-4.315-4.31a1.033,1.033,0,0,1,1.461-1.46l3.584,3.58,8.59-8.58a1.02,1.02,0,0,1,1.46,0,1.031,1.031,0,0,1,0,1.46l-9.319,9.31A1.035,1.035,0,0,1,543.339,1491.68Z" transform="translate(-538 -1480.31)" fill-rule="evenodd"/>
	</symbol>
	<symbol id="icon-arrow-long" viewBox="0 0 26.000105 14.060141">
		<path d="m 18.986328,0 c -0.305125,0 -0.610297,0.11617425 -0.841797,0.34765625 -0.463,0.462965 -0.463,1.22063375 0,1.68359375 l 3.808594,3.8085938 H 1.1894531 C 0.53200015,5.8398438 0,6.3718569 0,7.0292969 0,7.6867369 0.53200014,8.2207031 1.1894531,8.2207031 H 21.955078 l -3.810547,3.8085939 c -0.463,0.463 -0.463,1.220594 0,1.683594 0.463,0.463 1.220594,0.463 1.683594,0 L 25.652344,7.8886719 C 25.887944,7.6531319 26.0041,7.34171 26,7.03125 26.000001,7.0305841 26,7.02996 26,7.0293 26,7.02237 25.9962,7.016672 25.9961,7.009769 25.99458,6.70651 25.882408,6.4018807 25.652344,6.171875 L 19.828125,0.34765625 C 19.596625,0.11617425 19.291453,0 18.986328,0 Z" />
	</symbol>
	<symbol id="icon-arrow-short" viewBox="0 0 6.585 11.175024">
		<path d="m 0.2925,1.71252 3.88,3.88 -3.88,3.88 c -0.39,0.39 -0.39,1.02 0,1.410004 0.39,0.39 1.02,0.39 1.41,0 l 4.59,-4.590004 c 0.39,-0.39 0.39,-1.02 0,-1.41 L 1.7025,0.2925 c -0.39,-0.39 -1.02,-0.39 -1.41,0 -0.38,0.39 -0.39,1.03 0,1.42002 z"/>
	</symbol>
	<symbol id="icon-search" viewBox="0 0 13.939 14">
		<path d="M1006.68,27.279l-2.78-2.772a6.005,6.005,0,1,0-1.42,1.409l2.78,2.777A1,1,0,1,0,1006.68,27.279Zm-7.649-2.265a4,4,0,1,1,4-4A4,4,0,0,1,999.031,25.014Z" transform="translate(-993.031 -15)" fill-rule="evenodd"/>
	</symbol>
	<symbol id="icon-email" viewBox="0 0 22 18">
		<path d="M 3,0 C 1.3545455,0 0,1.3545455 0,3 v 12 c 0,1.645455 1.3545455,3 3,3 h 16 c 1.645455,0 3,-1.354545 3,-3 V 3 C 22,1.3545455 20.645455,0 19,0 Z m 0,2 h 16 c 0.554545,0 1,0.4454545 1,1 v 12 c 0,0.554545 -0.445455,1 -1,1 H 3 C 2.4454545,16 2,15.554545 2,15 V 3 C 2,2.4454545 2.4454545,2 3,2 Z"/>
		<path d="M 1.0214844,2 A 1,1 0 0 0 0.1816406,2.4257812 1,1 0 0 0 0.4257812,3.8183594 l 9.9999998,6.9999996 a 1.0001,1.0001 0 0 0 1.148438,0 l 10,-6.9999996 A 1,1 0 0 0 21.818359,2.4257812 1,1 0 0 0 20.425781,2.1816406 L 11,8.779297 1.5742188,2.1816406 A 1,1 0 0 0 1.0214844,2 Z"/>
	</symbol>
	<symbol id="icon-menu" viewBox="0 0 448 392">
		<path d="m 16,72 h 416 c 8.837,0 16,-7.163 16,-16 V 16 C 448,7.163 440.837,0 432,0 H 16 C 7.163,0 0,7.163 0,16 v 40 c 0,8.837 7.163,16 16,16 z m 0,160 h 416 c 8.837,0 16,-7.163 16,-16 v -40 c 0,-8.837 -7.163,-16 -16,-16 H 16 c -8.837,0 -16,7.163 -16,16 v 40 c 0,8.837 7.163,16 16,16 z m 0,160 h 416 c 8.837,0 16,-7.163 16,-16 v -40 c 0,-8.837 -7.163,-16 -16,-16 H 16 c -8.837,0 -16,7.163 -16,16 v 40 c 0,8.837 7.163,16 16,16 z"/>
	</symbol>
	<symbol id="icon-spinner" viewBox="0 0 512 512">
		<path d="M96 256c0-6.090 0.352-12.098 1.015-18.011l-92.49-30.052c-2.958 15.57-4.525 31.632-4.525 48.063 0 73.615 31.083 139.961 80.827 186.662l57.142-78.648c-26.062-28.463-41.969-66.379-41.969-108.014zM416 256c0 41.634-15.906 79.551-41.969 108.014l57.142 78.648c49.744-46.701 80.827-113.047 80.827-186.662 0-16.431-1.566-32.493-4.524-48.063l-92.49 30.052c0.662 5.914 1.014 11.921 1.014 18.011zM288 99.204c45.967 9.331 84.772 38.371 107.225 77.913l92.489-30.051c-36.598-77.71-111.12-134.030-199.714-145.078v97.216zM116.775 177.116c22.453-39.542 61.258-68.582 107.225-77.913v-97.215c-88.594 11.048-163.115 67.368-199.713 145.077l92.488 30.051zM322.278 401.664c-20.195 9.204-42.636 14.336-66.278 14.336s-46.083-5.132-66.277-14.335l-57.146 78.655c36.603 20.183 78.668 31.68 123.423 31.68s86.82-11.497 123.424-31.68l-57.146-78.656z"/>
	</symbol>
	<symbol id="icon-mobile" viewBox="0 0 18.687 29.88">
		<path d="M233.723,4588.82H248.65a1.87,1.87,0,0,1,1.866,1.87v26.12a1.87,1.87,0,0,1-1.866,1.87H233.723a1.87,1.87,0,0,1-1.866-1.87v-26.12A1.87,1.87,0,0,1,233.723,4588.82Zm3.265,1.87h8.4a0.465,0.465,0,1,1,0,.93h-8.4A0.465,0.465,0,1,1,236.988,4590.69Zm-3.265,2.8H248.65v21.46H233.723v-21.46Zm7.464,22.39a0.93,0.93,0,1,1-.933.93A0.934,0.934,0,0,1,241.187,4615.88Z" transform="translate(-231.844 -4588.81)" fill-rule="evenodd" />
	</symbol>
	<symbol id="icon-round-arrows" viewBox="0 0 705.82477 863.42748">
		<g transform="translate(280.3377,21.59442)">
			<path d="M -79.388183,779.23169 C -131.25051,768.208 -173.73095,737.20534 -200.49353,695.99453 l 21.67138,-14.07019 -101.51555,-48.92159 0.57093,111.25434 25.60408,-13.40937 c 35.68227,54.94852 92.32004,96.28749 161.468166,110.98538 13.306341,-62.60141 0,0 13.306341,-62.60141 z" />
			<path d="m 224.53737,41.007023 c 51.86237,11.023686 94.34285,42.026358 121.10546,83.237177 L 323.97144,138.31439 425.48708,187.236 424.91613,75.981651 399.31202,89.391023 C 363.62971,34.442497 306.9919,-6.8965187 237.84372,-21.59442 c -13.30635,62.601443 0,0 -13.30635,62.601443 z" />
		</g>
	</symbol>
</svg>